<?xml version="1.0" encoding="UTF-8"?>
<svg version="1.1" xmlns="http://www.w3.org/2000/svg" width="48" height="48">
<path d="M0 0 C15.84 0 31.68 0 48 0 C48 15.84 48 31.68 48 48 C32.16 48 16.32 48 0 48 C0 32.16 0 16.32 0 0 Z " fill="#0743CE" transform="translate(0,0)"/>
<path d="M0 0 C8.05859496 -0.70500466 8.05859496 -0.70500466 11.62890625 1.96875 C12.58603516 3.22171875 12.58603516 3.22171875 13.5625 4.5 C14.22378906 5.3353125 14.88507812 6.170625 15.56640625 7.03125 C16.03949219 7.6809375 16.51257813 8.330625 17 9 C17.33 6.03 17.66 3.06 18 0 C21.3 0 24.6 0 28 0 C28 10.89 28 21.78 28 33 C25.03 33 22.06 33 19 33 C18 32 18 32 17.75 28.25 C17.27560669 23.76336497 15.39511978 21.95984801 12 19 C12 18.34 12 17.68 12 17 C11.34 17 10.68 17 10 17 C10 22.28 10 27.56 10 33 C3.06640625 33.09765625 3.06640625 33.09765625 1 33 C0 32 0 32 -0.11352539 28.94897461 C-0.11336634 27.60008729 -0.10767612 26.25119386 -0.09765625 24.90234375 C-0.0962413 24.19348526 -0.09482635 23.48462677 -0.09336853 22.75428772 C-0.08775443 20.48198288 -0.07519963 18.20977525 -0.0625 15.9375 C-0.05748681 14.40039204 -0.05292359 12.86328255 -0.04882812 11.32617188 C-0.03778042 7.55074358 -0.02050641 3.77538829 0 0 Z " fill="#F5F7FD" transform="translate(10,8)"/>
</svg>
